<?xml version="1.0" encoding="iso-8859-1"?>
<!-- Generator: Adobe Illustrator 19.0.0, SVG Export Plug-In . SVG Version: 6.00 Build 0)  -->
<svg version="1.1" id="Layer_1" xmlns="http://www.w3.org/2000/svg" xmlns:xlink="http://www.w3.org/1999/xlink" x="0px" y="0px"
	 viewBox="0 0 512 512" style="enable-background:new 0 0 512 512;" xml:space="preserve">
<g>
	<g>
		<path d="M417.579,104.992c-8.297,0-16.474,1.075-24.415,3.203c-7.091-23.13-19.937-44.093-37.509-61.073
			c-3.468-3.353-8.998-3.255-12.347,0.211c-3.351,3.468-3.257,8.997,0.212,12.347c17.44,16.854,29.582,38.167,35.114,61.634
			c0.578,2.45,2.183,4.53,4.405,5.71c2.224,1.181,4.846,1.344,7.199,0.449c8.754-3.329,17.953-5.017,27.342-5.017
			c42.434,0,76.956,34.522,76.956,76.955c0,42.434-34.521,76.956-76.956,76.956c-24.839,0-48.29-12.116-62.731-32.409
			c-1.458-2.049-3.727-3.369-6.229-3.624c-2.499-0.256-4.992,0.581-6.832,2.292c-23.397,21.758-53.863,33.741-85.788,33.741
			s-62.392-11.983-85.789-33.742c-1.841-1.711-4.331-2.547-6.832-2.292s-4.771,1.576-6.23,3.624
			c-14.44,20.295-37.891,32.411-62.73,32.411c-42.433,0-76.954-34.523-76.954-76.956c0-42.433,34.521-76.955,76.956-76.955
			c9.389,0,18.589,1.688,27.342,5.017c2.353,0.895,4.974,0.731,7.199-0.449c2.221-1.179,3.827-3.26,4.405-5.71
			c6.404-27.163,21.989-51.795,43.883-69.361c22.548-18.089,49.779-27.648,78.751-27.648c23.937,0,47.22,6.739,67.334,19.489
			c4.074,2.581,9.468,1.374,12.052-2.7c2.581-4.074,1.373-9.468-2.7-12.05C309.771,14.518,283.254,6.84,256.002,6.84
			c-32.516,0-64.365,11.183-89.678,31.491c-22.45,18.009-39.074,42.556-47.48,69.865c-7.943-2.13-16.123-3.205-24.422-3.205
			C42.357,104.992,0,147.347,0,199.411c0,40.238,25.311,74.659,60.84,88.228l29.09,182.565
			c3.226,20.254,20.456,34.956,40.967,34.956h250.22c20.511,0,37.741-14.702,40.967-34.958l29.077-182.561
			C486.688,274.07,512,239.65,512,199.411C512,147.347,469.643,104.992,417.579,104.992z M247.266,487.695h-78.312l-6.402-65.469
			c-0.469-4.8-4.747-8.319-9.54-7.84c-4.799,0.469-8.31,4.741-7.84,9.54l6.238,63.77h-20.514c-11.876,0-21.852-8.512-23.72-20.239
			l-27.86-174.848c4.921,0.795,9.963,1.224,15.104,1.224c12.974,0,25.635-2.698,37.269-7.711l10.62,108.567
			c0.442,4.512,4.242,7.883,8.681,7.883c0.284,0,0.572-0.014,0.86-0.042c4.799-0.469,8.31-4.741,7.84-9.54l-11.359-116.116
			c6.251-4.349,12.002-9.461,17.094-15.265c23.309,19.011,51.82,30.144,81.841,31.956V487.695z M404.836,467.454
			c-1.868,11.728-11.844,20.241-23.72,20.241H360.59l11.34-115.922c0.468-4.799-3.041-9.071-7.84-9.54
			c-4.814-0.468-9.071,3.041-9.541,7.84l-11.506,117.622h-78.309V293.563c30.019-1.814,58.53-12.947,81.84-31.956
			c5.091,5.803,10.843,10.915,17.093,15.264l-5.749,58.775c-0.468,4.799,3.041,9.071,7.84,9.54c0.29,0.028,0.576,0.042,0.86,0.042
			c4.439,0,8.239-3.372,8.681-7.883l5.011-51.224c11.634,5.013,24.297,7.711,37.27,7.711c5.142,0,10.184-0.428,15.104-1.224
			L404.836,467.454z"/>
	</g>
</g>
<g>
</g>
<g>
</g>
<g>
</g>
<g>
</g>
<g>
</g>
<g>
</g>
<g>
</g>
<g>
</g>
<g>
</g>
<g>
</g>
<g>
</g>
<g>
</g>
<g>
</g>
<g>
</g>
<g>
</g>
</svg>
